<svg xmlns="http://www.w3.org/2000/svg" viewBox="0 0 128 128"><defs><style>.cls-1{fill:#c92725;}</style></defs><title>italy-pizza</title><g id="icons"><path class="cls-1" d="M85.11,21.18c-10,5.18-23.19,15.55-35.67,28.31C36.65,61.93,27.18,74.68,22,84.43L12,81.32c6.24-12.13,16.64-26.23,29.85-39.4C55.26,28.75,69.2,18.38,81.37,12.16ZM116,115.84,26.14,86.08C31,77.17,40.81,65,53.18,53c11.86-12.13,24-22.5,33-28.1ZM68.89,96.14a10.38,10.38,0,0,0-15.7-13.48,9.32,9.32,0,0,0-3.12,6.64ZM91.77,66.07A10.41,10.41,0,0,0,94.16,63L87.5,44.61A13.1,13.1,0,0,0,73.36,66.07C78.56,70.95,86.88,70.95,91.77,66.07Zm14.56,29.76L101.13,82a7.44,7.44,0,0,0-5.3,2.38,7.74,7.74,0,0,0,0,11.09A7.52,7.52,0,0,0,106.33,95.83Z"/></g></svg>